<svg width="512" height="512" viewBox="0 0 512 512" fill="none" xmlns="http://www.w3.org/2000/svg">
<g clip-path="url(#clip0_2517_2830)">
<path d="M384 0H128C57.3075 0 0 57.3075 0 128V384C0 454.692 57.3075 512 128 512H384C454.692 512 512 454.692 512 384V128C512 57.3075 454.692 0 384 0Z" fill="white"/>
<path d="M128 128V112H112V128H128ZM384 128H400V112H384V128ZM164.686 244.686C158.438 250.934 158.438 261.066 164.686 267.314C170.934 273.562 181.066 273.562 187.314 267.314L164.686 244.686ZM224 208L235.314 196.686C229.066 190.438 218.934 190.438 212.686 196.686L224 208ZM272 256L260.686 267.314C266.934 273.562 277.066 273.562 283.314 267.314L272 256ZM347.314 203.314C353.562 197.066 353.562 186.934 347.314 180.686C341.066 174.438 330.934 174.438 324.686 180.686L347.314 203.314ZM180.686 388.686C174.438 394.934 174.438 405.066 180.686 411.314C186.934 417.562 197.066 417.562 203.314 411.314L180.686 388.686ZM256 336L267.314 324.686C261.066 318.438 250.934 318.438 244.686 324.686L256 336ZM308.686 411.314C314.934 417.562 325.066 417.562 331.314 411.314C337.562 405.066 337.562 394.934 331.314 388.686L308.686 411.314ZM112 112C103.164 112 96 119.164 96 128C96 136.836 103.164 144 112 144V112ZM400 144C408.837 144 416 136.836 416 128C416 119.164 408.837 112 400 112V144ZM128 144H384V112H128V144ZM368 128V320H400V128H368ZM368 320H144V352H368V320ZM144 320V128H112V320H144ZM144 320H112C112 337.674 126.327 352 144 352V320ZM368 320V352C385.674 352 400 337.674 400 320H368ZM187.314 267.314L235.314 219.314L212.686 196.686L164.686 244.686L187.314 267.314ZM212.686 219.314L260.686 267.314L283.314 244.686L235.314 196.686L212.686 219.314ZM283.314 267.314L347.314 203.314L324.686 180.686L260.686 244.686L283.314 267.314ZM203.314 411.314L267.314 347.314L244.686 324.686L180.686 388.686L203.314 411.314ZM244.686 347.314L308.686 411.314L331.314 388.686L267.314 324.686L244.686 347.314ZM112 144H400V112H112V144Z" fill="#111827"/>
</g>
<defs>
<clipPath id="clip0_2517_2830">
<rect width="512" height="512" fill="white"/>
</clipPath>
</defs>
</svg>
